<?xml version="1.0" encoding="UTF-8"?>
<svg width="752pt" height="752pt" version="1.1" viewBox="0 0 752 752" xmlns="http://www.w3.org/2000/svg">
 <path d="m264.39 236.73c-6.7852 9.3359-6.7852 22.652-6.7852 49.289v78.113h-53.277v11.836h53.277v0.03125h11.84v-0.03125h125.28l-51.25 51.25c-1.9453 1.9453-2.918 2.918-3.5039 3.9297-1.5859 2.7461-1.5859 6.1328 0 8.8789 0.58594 1.0117 1.5586 1.9883 3.5039 3.9336l73.91-73.91-73.91-73.91c-1.9453 1.9453-2.918 2.918-3.5039 3.9297-1.5859 2.75-1.5859 6.1328 0 8.8828 0.58594 1.0117 1.5586 1.9844 3.5039 3.9297l51.25 51.25h-125.28v-87.582c0-17.758 0-26.637 4.5234-32.863 1.4609-2.0078 3.2266-3.7773 5.2383-5.2383 6.2227-4.5234 15.102-4.5234 32.859-4.5234h127.87c17.758 0 26.637 0 32.863 4.5234 2.0117 1.4609 3.7773 3.2305 5.2383 5.2383 4.5234 6.2266 4.5234 15.105 4.5234 32.863v241.52h-213.11v-118.39h-11.84v130.23h236.79v-243.89c0-26.637 0-39.953-6.7852-49.289-2.1914-3.0156-4.8438-5.668-7.8555-7.8594-9.3398-6.7852-22.656-6.7852-49.293-6.7852h-108.93c-26.637 0-39.957 0-49.293 6.7852-3.0117 2.1914-5.6641 4.8438-7.8555 7.8594z"/>
</svg>
